<svg id="Layer_1" data-name="Layer 1" xmlns="http://www.w3.org/2000/svg" viewBox="0 0 378.74 400"><defs><style>.cls-1{fill:#ee713a;}.cls-2{fill:#f7ae6e;}.cls-3{fill:#d15e2d;}.cls-4{fill:#bb4126;}.cls-5{fill:#f4a15a;}.cls-6{fill:#ed723d;}.cls-7,.cls-8{fill:#fff;}.cls-7{opacity:0.19;}.cls-10,.cls-9{fill:#4c2c20;}.cls-9{opacity:0.44;}.cls-10{opacity:0.32;}.cls-11{fill:#651d0d;opacity:0.4;}</style></defs><polygon class="cls-1" points="243.35 0 281.62 76.94 126.06 400 86.97 323.14 243.35 0"/><polygon class="cls-2" points="0 291.75 154.12 4.92 243.35 0 87.71 323.14 0 291.75"/><polygon class="cls-3" points="126.06 400 86.97 323.14 0 291.75 37.18 363.15 126.06 400"/><polygon class="cls-4" points="212.76 219.94 278.74 236.97 278.74 345.88 167.63 313.68 212.76 219.94"/><polygon class="cls-5" points="239.71 163.97 378.74 196.96 278.74 236.97 212.76 219.94 239.71 163.97"/><polygon class="cls-6" points="378.74 299.14 378.74 196.96 278.74 236.97 278.74 345.88 378.74 299.14"/><polygon class="cls-7" points="0 291.75 243.35 0 154.12 4.92 0 291.75"/><path class="cls-8" d="M450,172.69" transform="translate(-50 -50)"/><polygon class="cls-9" points="278.74 236.97 278.74 173.23 239.71 163.97 212.76 219.94 278.74 236.97"/><polygon class="cls-10" points="212.76 219.94 212.76 326.76 167.63 313.68 212.76 219.94"/><polygon class="cls-11" points="126.06 400 167.63 313.68 212.76 326.76 126.06 400"/></svg>