<svg id="Layer_1" data-name="Layer 1" xmlns="http://www.w3.org/2000/svg" xmlns:xlink="http://www.w3.org/1999/xlink" viewBox="0 0 400.5 200.5"><defs><style>.cls-1{fill:#6b3a1d;}.cls-2{fill:#7a4726;stroke:#432313;stroke-miterlimit:10;}.cls-3{fill:#f7a269;}.cls-4{opacity:0.08;}</style><image id="image" width="632" height="395" xlink:href="../../../../Downloads/png-clipart-circle-tree-ring-spiral-circle-removebg-preview.png"/></defs><polygon class="cls-1" points="229.65 172.76 71.89 172.76 158.4 167.8 229.65 172.76"/><rect class="cls-2" x="16.59" y="102.19" width="320.49" height="91.25" rx="30"/><ellipse class="cls-3" cx="45.36" cy="147.82" rx="31.42" ry="45.62"/><ellipse class="cls-3" cx="45.36" cy="146.87" rx="22.47" ry="32.62"/><ellipse class="cls-3" cx="45.36" cy="147.82" rx="14.65" ry="21.28"/><polygon class="cls-1" points="73.86 128.59 187.47 119.45 134.54 128.59 74.58 131.01 73.86 128.59"/><polygon class="cls-1" points="102.99 155.85 258.21 147.81 117.24 160.94 82.13 158.18 102.99 155.85"/><polygon class="cls-1" points="187.47 131.01 328.03 115.79 176.84 134.69 187.47 131.01"/><polygon class="cls-1" points="266.35 165.31 328.03 165.31 278.06 169.09 266.35 165.31"/><polygon class="cls-1" points="85.18 177.6 206.3 167.2 172.2 177.6 136.58 177.6 89.25 179.49 85.18 177.6"/><polygon class="cls-1" points="336.08 131.01 266.35 134.69 336.78 134.69 336.08 131.01"/><polygon class="cls-1" points="219.53 179.49 328.03 179.84 271.44 184.22 206.3 181.86 219.53 179.49"/><polygon class="cls-1" points="274.49 107.16 116.73 107.16 203.25 102.19 274.49 107.16"/><path class="cls-4" d="M95.36,252.19v91.25s-30.92-1.65-31.43-45.62S95.36,252.19,95.36,252.19Z" transform="translate(-50 -150)"/><polygon class="cls-1" points="264.13 97.88 106.37 97.88 192.88 92.92 264.13 97.88"/><rect class="cls-2" x="51.07" y="27.31" width="320.49" height="91.25" rx="30"/><ellipse class="cls-3" cx="79.84" cy="72.94" rx="31.42" ry="45.62"/><ellipse class="cls-3" cx="79.84" cy="71.99" rx="22.47" ry="32.62"/><ellipse class="cls-3" cx="79.84" cy="73.52" rx="6.74" ry="9.78"/><polygon class="cls-1" points="108.34 53.71 221.95 44.57 169.02 53.71 109.05 56.14 108.34 53.71"/><polygon class="cls-1" points="137.47 80.97 292.69 72.94 151.72 86.06 116.61 83.3 137.47 80.97"/><polygon class="cls-1" points="221.95 56.14 362.5 40.91 211.32 59.82 221.95 56.14"/><polygon class="cls-1" points="300.83 90.43 362.5 90.43 312.53 94.21 300.83 90.43"/><polygon class="cls-1" points="119.66 102.72 240.78 92.32 206.68 102.72 171.06 102.72 123.73 104.61 119.66 102.72"/><polygon class="cls-1" points="370.56 56.14 300.83 59.82 371.25 59.82 370.56 56.14"/><polygon class="cls-1" points="254.01 104.61 362.5 104.97 305.92 109.34 240.78 106.98 254.01 104.61"/><polygon class="cls-1" points="308.97 32.28 151.21 32.28 237.72 27.31 308.97 32.28"/><path class="cls-4" d="M129.84,177.31v91.25s-30.92-1.65-31.43-45.62S129.84,177.31,129.84,177.31Z" transform="translate(-50 -150)"/><polygon class="cls-1" points="292.56 179.32 134.8 179.32 221.31 174.36 292.56 179.32"/><rect class="cls-2" x="79.51" y="108.75" width="320.49" height="91.25" rx="30"/><ellipse class="cls-3" cx="108.27" cy="154.38" rx="31.42" ry="45.62"/><ellipse class="cls-3" cx="108.27" cy="153.43" rx="22.47" ry="32.62"/><ellipse class="cls-3" cx="108.27" cy="154.38" rx="14.65" ry="21.28"/><polygon class="cls-1" points="157.64 132.49 312.85 124.45 171.88 137.57 136.77 134.82 157.64 132.49"/><polygon class="cls-1" points="211.32 181.09 332.44 170.69 298.34 181.09 262.72 181.09 215.39 182.99 211.32 181.09"/><polygon class="cls-1" points="398.54 147.66 240.78 147.66 327.29 142.7 398.54 147.66"/><path class="cls-4" d="M158.27,258.75V350s-30.91-1.65-31.42-45.62S158.27,258.75,158.27,258.75Z" transform="translate(-50 -150)"/><use transform="translate(96.28 96.34) scale(0.11 0.17)" xlink:href="#image"/><use transform="matrix(0.01, -0.17, 0.11, 0.01, 86.57, 124.92)" xlink:href="#image"/><use transform="matrix(-0.11, 0, 0, 0.17, 123.99, 91.44)" xlink:href="#image"/></svg>